<svg xmlns="http://www.w3.org/2000/svg" xmlns:xlink="http://www.w3.org/1999/xlink" width="45" zoomAndPan="magnify" viewBox="0 0 33.75 33.749998" height="45" preserveAspectRatio="xMidYMid meet" version="1.0"><defs><filter x="0%" y="0%" width="100%" height="100%" id="dcb454b96b"><feColorMatrix values="0 0 0 0 1 0 0 0 0 1 0 0 0 0 1 0 0 0 1 0" color-interpolation-filters="sRGB"/></filter><clipPath id="3b1057f64c"><path d="M 0 0 L 33 0 L 33 33.5 L 0 33.5 Z M 0 0 " clip-rule="nonzero"/></clipPath><mask id="01f8cf19e8"><g filter="url(#dcb454b96b)"><rect x="-3.375" width="40.5" fill="#000000" y="-3.375" height="40.499998" fill-opacity="0.78"/></g></mask><clipPath id="651915e213"><path d="M 1 0.550781 L 32 0.550781 L 32 22 L 1 22 Z M 1 0.550781 " clip-rule="nonzero"/></clipPath><clipPath id="522a61cb5f"><path d="M 2 0.550781 L 32 0.550781 L 32 21 L 2 21 Z M 2 0.550781 " clip-rule="nonzero"/></clipPath><clipPath id="b539ecb30c"><path d="M 3 2 L 32.875 2 L 32.875 21 L 3 21 Z M 3 2 " clip-rule="nonzero"/></clipPath><clipPath id="bf4617449f"><rect x="0" width="33" y="0" height="34"/></clipPath></defs><g clip-path="url(#3b1057f64c)"><g mask="url(#01f8cf19e8)"><g transform="matrix(1, 0, 0, 1, 0, -0.000000000000001055)"><g clip-path="url(#bf4617449f)"><g clip-path="url(#651915e213)"><path fill="#1ccd8d" d="M 1.863281 9.21875 L 5.3125 9.960938 L 4.324219 10.015625 C 3.566406 11.15625 1.488281 10.742188 1.003906 9.066406 C 1 9.066406 2.894531 7.277344 4.460938 9.402344 Z M 2.761719 14.75 L 5.183594 14.539062 L 4.546875 14.773438 C 4.277344 15.679688 2.820312 15.828125 2.164062 14.820312 C 2.164062 14.820312 3.046875 13.257812 4.511719 14.34375 Z M 4.585938 20.550781 L 6.417969 19.035156 L 6.035156 19.578125 C 6.324219 20.457031 5.238281 21.382812 4.144531 20.941406 C 4.144531 20.941406 3.988281 19.191406 5.765625 19.25 Z M 9.15625 15.394531 L 10.765625 14.976562 L 10.363281 15.207031 C 10.28125 15.851562 9.316406 16.117188 8.757812 15.511719 C 8.757812 15.511719 9.175781 14.355469 10.289062 14.921875 Z M 11.824219 11.542969 L 13.324219 12.273438 L 12.867188 12.1875 C 12.386719 12.625 11.476562 12.199219 11.445312 11.375 C 11.445312 11.375 12.515625 10.765625 12.996094 11.917969 Z M 18.335938 15.160156 L 17.289062 16.171875 L 17.648438 15.976562 C 18.160156 16.210938 18.800781 15.613281 18.605469 14.921875 C 18.601562 14.921875 17.550781 14.707031 17.464844 15.789062 Z M 27.054688 20.582031 L 25.34375 19.164062 L 25.699219 19.675781 C 25.429688 20.496094 26.449219 21.363281 27.46875 20.949219 C 27.46875 20.949219 27.613281 19.3125 25.953125 19.367188 Z M 30.566406 17.628906 L 27.917969 16.90625 L 28.578125 17.296875 C 28.695312 18.355469 30.277344 18.816406 31.214844 17.832031 C 31.214844 17.832031 30.550781 15.917969 28.707031 16.824219 Z M 23.84375 13.183594 L 20.253906 12.957031 L 21.203125 13.285156 C 21.632812 14.617188 23.789062 14.785156 24.734375 13.273438 C 24.734375 13.273438 23.371094 10.992188 21.246094 12.644531 Z M 24.460938 7.519531 L 20.855469 9.3125 L 21.960938 9.09375 C 23.125 10.144531 25.308594 9.097656 25.371094 7.105469 C 25.371094 7.105469 22.773438 5.65625 21.640625 8.453125 Z M 29.976562 9.21875 L 26.527344 9.960938 L 27.511719 10.015625 C 28.273438 11.15625 30.351562 10.742188 30.835938 9.066406 C 30.835938 9.066406 28.945312 7.277344 27.382812 9.402344 Z M 9.265625 1.757812 L 11.261719 5.023438 L 10.484375 4.289062 C 9.019531 4.542969 7.789062 2.601562 8.742188 0.964844 C 8.742188 0.964844 11.566406 1.117188 11.0625 3.933594 Z M 9.265625 1.757812 " fill-opacity="1" fill-rule="evenodd"/></g><path fill="#1ccd8d" d="M 21.132812 14.855469 L 19.308594 15.21875 L 19.828125 15.257812 C 20.21875 15.863281 21.320312 15.664062 21.589844 14.78125 C 21.589844 14.78125 20.605469 13.824219 19.761719 14.929688 Z M 11.289062 14.207031 L 13.519531 14.84375 L 12.871094 14.835938 C 12.324219 15.550781 10.980469 15.1875 10.730469 14.066406 C 10.730469 14.066406 12.050781 12.976562 12.988281 14.4375 Z M 3.347656 11.933594 L 6.40625 12.164062 L 5.566406 12.328125 C 5.042969 13.402344 3.203125 13.289062 2.585938 11.902344 C 2.585938 11.902344 4.003906 10.136719 5.605469 11.78125 Z M 28.492188 11.933594 L 25.433594 12.164062 L 26.273438 12.328125 C 26.796875 13.402344 28.636719 13.289062 29.253906 11.902344 C 29.253906 11.902344 27.835938 10.136719 26.234375 11.78125 Z M 21.304688 10.785156 L 18.417969 11.820312 L 19.273438 11.753906 C 20.058594 12.652344 21.804688 12.054688 22.03125 10.554688 C 22.03125 10.554688 20.195312 9.226562 19.085938 11.242188 Z M 7.378906 7.519531 L 10.984375 9.3125 L 9.878906 9.09375 C 8.71875 10.144531 6.53125 9.097656 6.464844 7.105469 C 6.464844 7.105469 9.066406 5.65625 10.199219 8.453125 Z M 13.761719 6.105469 L 14.523438 8.808594 L 14.121094 8.136719 C 13.035156 8.027344 12.550781 6.410156 13.550781 5.441406 C 13.550781 5.441406 15.511719 6.105469 14.601562 8 Z M 21.273438 6.113281 L 19.683594 8.085938 L 20.257812 7.671875 C 21.199219 7.964844 22.171875 6.792969 21.683594 5.636719 C 21.683594 5.636719 19.820312 5.492188 19.90625 7.386719 Z M 17.035156 2.960938 L 16.792969 5.613281 L 17.054688 4.917969 C 18.046875 4.625 18.21875 3.03125 17.117188 2.304688 C 17.117188 2.304688 15.402344 3.265625 16.582031 4.875 Z M 17.035156 2.960938 " fill-opacity="1" fill-rule="evenodd"/><g clip-path="url(#522a61cb5f)"><path fill="#1ccd8d" d="M 6.730469 20.429688 L 7.417969 19.65625 L 7.289062 19.917969 C 7.46875 20.277344 7.0625 20.746094 6.566406 20.625 C 6.566406 20.625 6.382812 19.882812 7.152344 19.792969 Z M 2.53125 16.792969 L 4.246094 16.324219 L 3.820312 16.578125 C 3.742188 17.265625 2.71875 17.5625 2.113281 16.925781 C 2.113281 16.925781 2.539062 15.6875 3.734375 16.273438 Z M 30.714844 14.839844 L 27.128906 14.527344 L 28.074219 14.875 C 28.472656 16.21875 30.621094 16.4375 31.601562 14.945312 C 31.601562 14.945312 30.292969 12.632812 28.128906 14.238281 Z M 7.996094 13.183594 L 11.585938 12.957031 L 10.636719 13.285156 C 10.207031 14.617188 8.050781 14.785156 7.105469 13.273438 C 7.105469 13.273438 8.46875 10.992188 10.597656 12.644531 Z M 19.90625 13.339844 L 18.054688 13.785156 L 18.585938 13.804688 C 19.011719 14.410156 20.128906 14.15625 20.371094 13.246094 C 20.371094 13.246094 19.324219 12.304688 18.507812 13.472656 Z M 25.394531 10.5 L 22.707031 11.078125 L 23.476562 11.121094 C 24.070312 12.007812 25.6875 11.6875 26.066406 10.378906 C 26.066406 10.378906 24.589844 8.988281 23.371094 10.640625 Z M 9.625 10.207031 L 11.375 10.832031 L 10.855469 10.792969 C 10.382812 11.335938 9.324219 10.976562 9.1875 10.066406 C 9.1875 10.066406 10.296875 9.261719 10.96875 10.480469 Z M 17.898438 6.71875 L 16.859375 10.402344 L 17.410156 9.484375 C 18.890625 9.335938 19.546875 7.132812 18.1875 5.816406 C 18.1875 5.816406 15.511719 6.71875 16.753906 9.300781 Z M 4.972656 8.101562 L 6.699219 8.960938 L 6.171875 8.855469 C 5.617188 9.359375 4.570312 8.859375 4.539062 7.90625 C 4.539062 7.90625 5.78125 7.210938 6.324219 8.550781 Z M 7.117188 4.191406 L 9.1875 6.234375 L 8.476562 5.835938 C 7.441406 6.289062 6.183594 5.082031 6.585938 3.703125 C 6.585938 3.703125 8.695312 3.296875 8.84375 5.464844 Z M 12.40625 3.167969 L 13.082031 5.726562 L 12.710938 5.085938 C 11.6875 4.964844 11.257812 3.433594 12.214844 2.539062 C 12.214844 2.539062 14.054688 3.195312 13.167969 4.964844 Z M 22.574219 1.757812 L 20.578125 5.023438 L 21.355469 4.289062 C 22.820312 4.546875 24.050781 2.601562 23.097656 0.964844 C 23.097656 0.964844 20.277344 1.117188 20.777344 3.933594 Z M 15.363281 1.195312 L 15.460938 3.8125 L 15.238281 3.113281 C 14.28125 2.777344 14.195312 1.207031 15.3125 0.550781 C 15.3125 0.550781 16.945312 1.582031 15.707031 3.097656 Z M 15.363281 1.195312 " fill-opacity="1" fill-rule="evenodd"/></g><g clip-path="url(#b539ecb30c)"><path fill="#1ccd8d" d="M 24.882812 20.429688 L 24.195312 19.65625 L 24.324219 19.917969 C 24.140625 20.277344 24.550781 20.746094 25.046875 20.625 C 25.046875 20.625 25.230469 19.882812 24.460938 19.792969 Z M 28.15625 18.753906 L 26.355469 17.902344 L 26.777344 18.265625 C 26.726562 19.039062 27.800781 19.566406 28.59375 18.980469 C 28.59375 18.980469 28.363281 17.53125 26.929688 17.945312 Z M 3.59375 18.605469 L 5.953125 17.492188 L 5.398438 17.96875 C 5.464844 18.980469 4.058594 19.671875 3.015625 18.902344 C 3.019531 18.902344 3.324219 17 5.199219 17.546875 Z M 12.402344 16.175781 L 13.988281 17.042969 L 13.496094 16.925781 C 12.953125 17.375 11.996094 16.867188 12.003906 15.972656 C 12.003906 15.972656 13.191406 15.371094 13.648438 16.644531 Z M 26.503906 14.285156 L 24.339844 14.097656 L 24.910156 14.308594 C 25.152344 15.117188 26.449219 15.25 27.035156 14.351562 C 27.035156 14.351562 26.25 12.957031 24.945312 13.921875 Z M 5.703125 14 L 7.214844 13.871094 L 6.820312 14.015625 C 6.648438 14.582031 5.742188 14.675781 5.328125 14.046875 C 5.328125 14.046875 5.882812 13.070312 6.792969 13.746094 Z M 17.875 12.660156 L 17.074219 13.554688 L 17.355469 13.371094 C 17.792969 13.535156 18.285156 13.003906 18.082031 12.441406 C 18.082031 12.441406 17.199219 12.328125 17.195312 13.230469 Z M 32.207031 12.492188 L 29.515625 12.550781 L 30.246094 12.730469 C 30.648438 13.695312 32.265625 13.6875 32.871094 12.5 C 32.871094 12.5 31.714844 10.886719 30.234375 12.253906 Z M 6.445312 10.5 L 9.132812 11.078125 L 8.363281 11.121094 C 7.773438 12.007812 6.152344 11.6875 5.773438 10.378906 C 5.773438 10.378906 7.25 8.988281 8.46875 10.640625 Z M 12.695312 8.976562 L 14.34375 10.921875 L 13.757812 10.515625 C 12.816406 10.835938 11.808594 9.683594 12.269531 8.507812 C 12.269531 8.507812 14.144531 8.316406 14.101562 10.222656 Z M 15.648438 9.058594 L 15.601562 10.566406 L 15.503906 10.15625 C 14.964844 9.921875 14.980469 9.015625 15.648438 8.683594 C 15.648438 8.683594 16.546875 9.34375 15.773438 10.164062 Z M 19.585938 8.9375 L 18.113281 10.398438 L 18.617188 10.113281 C 19.355469 10.433594 20.25 9.574219 19.960938 8.589844 C 19.960938 8.589844 18.460938 8.300781 18.355469 9.851562 Z M 26.863281 8.101562 L 25.140625 8.960938 L 25.667969 8.855469 C 26.226562 9.359375 27.269531 8.859375 27.300781 7.90625 C 27.300781 7.90625 26.058594 7.210938 25.515625 8.550781 Z M 10.566406 6.113281 L 12.15625 8.085938 L 11.582031 7.671875 C 10.640625 7.964844 9.667969 6.792969 10.15625 5.636719 C 10.15625 5.636719 12.019531 5.492188 11.933594 7.386719 Z M 15.640625 5.339844 L 15.582031 7.105469 L 15.46875 6.625 C 14.839844 6.351562 14.859375 5.292969 15.640625 4.902344 C 15.640625 4.902344 16.691406 5.675781 15.785156 6.636719 Z M 4.859375 5.785156 L 6.304688 6.910156 L 5.832031 6.714844 C 5.222656 7.074219 4.34375 6.414062 4.492188 5.519531 C 4.492188 5.519531 5.78125 5.109375 6.035156 6.453125 Z M 26.980469 5.785156 L 25.535156 6.910156 L 26.003906 6.714844 C 26.617188 7.074219 27.496094 6.414062 27.347656 5.519531 C 27.347656 5.519531 26.058594 5.109375 25.804688 6.453125 Z M 24.722656 4.191406 L 22.65625 6.234375 L 23.363281 5.835938 C 24.398438 6.289062 25.65625 5.082031 25.253906 3.703125 C 25.253906 3.703125 23.144531 3.296875 23 5.464844 Z M 19.480469 3.128906 L 18.84375 5.527344 L 19.191406 4.925781 C 20.152344 4.8125 20.554688 3.378906 19.660156 2.539062 C 19.660156 2.539062 17.933594 3.152344 18.765625 4.8125 Z M 14.457031 3.875 L 14.761719 5.371094 L 14.566406 4.988281 C 13.984375 4.886719 13.789062 3.988281 14.371094 3.507812 C 14.371094 3.507812 15.40625 3.945312 14.835938 4.9375 Z M 14.457031 3.875 " fill-opacity="1" fill-rule="evenodd"/></g><path fill="#1ccd8d" d="M 14.355469 28.675781 C 14.253906 25.101562 14.890625 19.773438 18.339844 17.84375 C 19.992188 16.917969 20.585938 16.089844 20.585938 16.089844 C 20.585938 16.089844 21.039062 16.523438 20.585938 17.191406 C 20.132812 17.863281 19.855469 18.238281 19.855469 18.238281 C 19.855469 18.238281 21.671875 17.902344 22.359375 16.78125 C 23.050781 15.65625 23.621094 15.578125 24.035156 15.734375 L 22.46875 17.519531 C 22.46875 17.519531 22.742188 17.527344 22.851562 17.46875 C 22.960938 17.410156 24.398438 15.882812 24.734375 15.714844 C 25.070312 15.546875 25.445312 15.683594 25.445312 15.683594 L 23.207031 17.914062 C 23.207031 17.914062 23.511719 17.921875 23.847656 17.695312 C 24.183594 17.46875 25.5625 15.941406 25.898438 15.753906 C 26.234375 15.566406 26.65625 15.765625 26.65625 15.765625 L 24.035156 18.167969 C 24.035156 18.167969 24.371094 18.21875 24.566406 18.058594 C 24.765625 17.902344 26.265625 16.484375 26.617188 16.316406 C 26.972656 16.148438 27.269531 16.355469 27.269531 16.355469 C 27.269531 16.355469 25.296875 18.503906 24.449219 18.886719 C 23.601562 19.273438 19.847656 19.652344 18.179688 20.300781 C 16.621094 20.910156 16.109375 23.859375 16.722656 26.957031 C 16.9375 27.707031 17.382812 28.304688 18.042969 28.796875 C 19.554688 28.304688 21.34375 29.007812 23.128906 29.707031 C 24.445312 30.222656 25.757812 30.738281 26.917969 30.738281 L 27.125 30.738281 L 27.125 31.664062 L 26.917969 31.664062 C 25.921875 31.664062 24.71875 31.429688 23.472656 31.1875 C 20.828125 30.671875 17.960938 30.109375 16.613281 31.71875 L 16.558594 31.785156 C 18.132812 30.332031 20.945312 30.878906 23.550781 31.386719 C 24.113281 31.496094 24.78125 31.675781 25.347656 31.785156 L 27.363281 31.785156 L 27.363281 32.222656 L 17.960938 32.222656 C 17.730469 32.644531 17.144531 32.945312 16.453125 32.945312 C 15.765625 32.945312 15.175781 32.644531 14.945312 32.222656 L 5.542969 32.222656 L 5.542969 31.785156 L 7.15625 31.785156 C 7.785156 31.695312 8.667969 31.523438 9.355469 31.386719 C 11.960938 30.878906 14.773438 30.332031 16.347656 31.785156 L 16.292969 31.71875 C 14.945312 30.113281 12.082031 30.671875 9.4375 31.1875 C 8.1875 31.429688 6.984375 31.664062 5.992188 31.664062 L 5.78125 31.664062 L 5.78125 30.738281 L 5.992188 30.738281 C 7.148438 30.738281 8.464844 30.222656 9.78125 29.707031 C 11.367188 29.085938 12.960938 28.460938 14.355469 28.675781 Z M 23.386719 31.785156 C 20.765625 31.273438 17.945312 30.742188 16.613281 32.332031 L 16.613281 32.335938 C 17.980469 31.132812 20.238281 31.371094 22.488281 31.785156 Z M 9.519531 31.785156 L 10.417969 31.785156 C 12.667969 31.371094 14.925781 31.132812 16.292969 32.335938 L 16.292969 32.332031 C 14.960938 30.742188 12.140625 31.273438 9.519531 31.785156 L 9.4375 31.800781 Z M 22.976562 30.097656 C 20.578125 29.160156 18.175781 28.214844 16.625 30.414062 L 16.453125 30.65625 L 16.28125 30.414062 C 14.734375 28.214844 12.328125 29.160156 9.933594 30.097656 C 8.652344 30.597656 7.378906 31.097656 6.199219 31.152344 L 6.199219 31.242188 C 7.117188 31.210938 8.214844 30.996094 9.355469 30.773438 C 12.023438 30.253906 14.902344 29.691406 16.453125 31.273438 C 18.003906 29.691406 20.886719 30.253906 23.550781 30.773438 C 24.691406 30.996094 25.789062 31.210938 26.707031 31.242188 L 26.707031 31.152344 C 25.527344 31.097656 24.253906 30.597656 22.976562 30.097656 Z M 10.117188 16.125 C 10.117188 16.125 9.605469 16.378906 10.050781 17.125 C 10.492188 17.871094 11.085938 18.898438 10.714844 19.082031 C 10.339844 19.265625 8.601562 18.429688 8.601562 18.429688 C 9.140625 18.566406 9.679688 18.707031 10.203125 18.703125 C 9.707031 18.203125 9.390625 16.902344 9.183594 16.636719 C 8.976562 16.371094 8.707031 16.359375 8.707031 16.359375 L 9.386719 18.097656 L 9.121094 18.03125 C 9.121094 18.03125 8.523438 16.34375 8.359375 16.074219 C 8.195312 15.808594 7.730469 15.703125 7.730469 15.703125 L 8.582031 18.027344 C 8.582031 18.027344 8.320312 17.910156 8.207031 17.726562 C 8.089844 17.542969 7.53125 15.800781 7.363281 15.554688 C 7.191406 15.308594 6.738281 15.164062 6.738281 15.164062 L 7.582031 17.566406 C 7.582031 17.566406 7.332031 17.476562 7.253906 17.308594 C 7.175781 17.136719 6.515625 15.160156 6.394531 14.996094 C 6.273438 14.832031 5.640625 14.703125 5.640625 14.703125 C 5.640625 14.703125 6.65625 18.003906 7.078125 18.757812 C 7.503906 19.511719 8.558594 19.921875 11.460938 20.257812 C 14.363281 20.59375 14.082031 22.953125 14.082031 22.953125 C 14.875 21.125 15.269531 19.617188 13.058594 18.613281 C 11.425781 17.875 10.476562 16.753906 10.117188 16.125 Z M 15.027344 13.109375 C 15.007812 13.121094 14.90625 13.171875 14.835938 13.171875 C 14.769531 13.171875 14.703125 13.292969 14.648438 13.363281 C 14.59375 13.433594 14.453125 13.480469 14.378906 13.542969 C 14.300781 13.605469 14.046875 13.878906 13.925781 13.902344 C 13.804688 13.921875 13.675781 13.859375 13.636719 13.9375 C 13.597656 14.015625 13.574219 14.179688 13.601562 14.222656 C 13.628906 14.265625 13.804688 14.3125 13.851562 14.289062 C 13.898438 14.265625 13.960938 14.097656 14.011719 14.070312 C 14.066406 14.042969 14.511719 13.902344 14.582031 13.816406 C 14.648438 13.730469 14.8125 13.601562 14.8125 13.601562 C 14.8125 13.601562 14.84375 13.710938 14.863281 13.714844 C 14.878906 13.722656 14.964844 13.648438 15.015625 13.714844 C 15.066406 13.785156 14.941406 14.214844 14.855469 14.589844 C 14.765625 14.964844 14.402344 15.351562 14.445312 15.460938 C 14.484375 15.558594 14.84375 15.660156 15.097656 15.609375 C 15.136719 15.820312 15.191406 16.105469 15.210938 16.15625 C 15.214844 16.160156 15.113281 16.714844 15.121094 16.84375 L 15.132812 17.203125 L 15.359375 17.535156 C 15.359375 17.535156 15.667969 17.605469 15.648438 17.4375 C 15.632812 17.265625 15.519531 16.957031 15.507812 16.890625 C 15.496094 16.824219 15.546875 16.273438 15.550781 16.207031 C 15.554688 16.15625 15.628906 15.664062 15.664062 15.425781 C 15.792969 15.398438 15.914062 15.382812 16.003906 15.394531 L 16.007812 15.394531 L 16.125 15.746094 L 15.875 16.378906 C 15.875 16.378906 15.695312 16.453125 15.6875 16.578125 C 15.675781 16.699219 15.894531 17.195312 15.949219 17.261719 C 16.003906 17.324219 16.097656 17.222656 16.136719 17.160156 C 16.171875 17.097656 16.078125 16.820312 16.070312 16.746094 C 16.066406 16.675781 16.140625 16.542969 16.179688 16.421875 C 16.21875 16.300781 16.417969 16.058594 16.453125 15.871094 C 16.480469 15.746094 16.496094 15.433594 16.503906 15.226562 C 16.5625 15.195312 16.601562 15.167969 16.601562 15.167969 C 16.601562 15.167969 16.472656 13.789062 16.253906 13.351562 C 16.253906 13.351562 16.34375 13.113281 16.433594 13.15625 C 16.527344 13.199219 16.492188 12.964844 16.492188 12.964844 C 16.492188 12.964844 16.773438 12.804688 16.875 12.617188 C 16.980469 12.429688 17.328125 12.070312 17.417969 12.023438 C 17.503906 11.972656 17.613281 11.703125 17.625 11.582031 C 17.636719 11.460938 17.589844 11.496094 17.585938 11.464844 C 17.578125 11.429688 17.5625 11.371094 17.539062 11.375 C 17.515625 11.375 17.480469 11.390625 17.472656 11.417969 C 17.46875 11.445312 17.421875 11.402344 17.402344 11.433594 C 17.378906 11.464844 17.355469 11.515625 17.34375 11.574219 C 17.328125 11.632812 17.242188 11.71875 17.234375 11.71875 C 17.226562 11.722656 17.160156 11.578125 17.132812 11.605469 C 17.105469 11.632812 17.105469 11.75 17.105469 11.847656 C 17.105469 11.945312 16.851562 12.195312 16.726562 12.289062 C 16.597656 12.382812 16.359375 12.570312 16.359375 12.570312 C 16.359375 12.570312 16.105469 12.546875 16.070312 12.585938 C 16.03125 12.625 15.828125 12.691406 15.78125 12.695312 C 15.738281 12.703125 15.644531 12.691406 15.644531 12.691406 C 15.644531 12.691406 15.761719 12.371094 15.722656 12.285156 C 15.683594 12.195312 15.671875 12.074219 15.644531 11.859375 C 15.640625 11.808594 15.613281 11.769531 15.578125 11.730469 C 15.816406 11.566406 16.175781 11.308594 16.1875 11.214844 C 16.203125 11.074219 16.039062 10.90625 16.027344 10.972656 C 16.019531 11.039062 15.921875 11.253906 15.816406 11.332031 C 15.707031 11.410156 15.589844 11.535156 15.53125 11.515625 C 15.472656 11.496094 15.144531 11.132812 14.671875 11.398438 C 14.199219 11.660156 14.210938 12.035156 14.339844 12.226562 C 14.46875 12.417969 14.296875 12.601562 14.234375 12.714844 C 14.171875 12.828125 13.804688 13.140625 13.886719 13.179688 C 13.953125 13.214844 14.445312 12.855469 14.644531 12.699219 C 14.691406 12.769531 14.742188 12.808594 14.777344 12.824219 C 14.855469 12.855469 15.027344 12.96875 15.027344 12.96875 Z M 15.027344 13.109375 " fill-opacity="1" fill-rule="evenodd"/></g></g></g></g></svg>