<svg xmlns="http://www.w3.org/2000/svg" xmlns:xlink="http://www.w3.org/1999/xlink" width="45" zoomAndPan="magnify" viewBox="0 0 33.75 33.749998" height="45" preserveAspectRatio="xMidYMid meet" version="1.0"><defs><clipPath id="abad08b250"><path d="M 1.300781 0.867188 L 32 0.867188 L 32 31.417969 L 1.300781 31.417969 Z M 1.300781 0.867188 " clip-rule="nonzero"/></clipPath><clipPath id="45464b331e"><path d="M 16.664062 0.867188 C 8.179688 0.867188 1.300781 7.707031 1.300781 16.140625 C 1.300781 24.578125 8.179688 31.417969 16.664062 31.417969 C 25.152344 31.417969 32.03125 24.578125 32.03125 16.140625 C 32.03125 7.707031 25.152344 0.867188 16.664062 0.867188 Z M 16.664062 0.867188 " clip-rule="nonzero"/></clipPath><clipPath id="820b4a07d6"><path d="M 2.207031 1.597656 L 31.242188 1.597656 L 31.242188 30.632812 L 2.207031 30.632812 Z M 2.207031 1.597656 " clip-rule="nonzero"/></clipPath></defs><g clip-path="url(#abad08b250)"><g clip-path="url(#45464b331e)"><path fill="#ffffff" d="M 1.300781 0.867188 L 31.972656 0.867188 L 31.972656 31.417969 L 1.300781 31.417969 Z M 1.300781 0.867188 " fill-opacity="1" fill-rule="nonzero"/></g></g><g clip-path="url(#820b4a07d6)"><path fill="#009846" d="M 31.242188 16.117188 C 31.242188 24.132812 24.742188 30.632812 16.726562 30.632812 C 8.707031 30.632812 2.207031 24.132812 2.207031 16.117188 C 2.207031 8.097656 8.707031 1.597656 16.726562 1.597656 C 24.742188 1.597656 31.242188 8.097656 31.242188 16.117188 " fill-opacity="1" fill-rule="nonzero"/></g><path fill="#ffdf00" d="M 3.527344 15.894531 L 16.675781 7.398438 L 29.890625 15.875 L 16.707031 24.441406 L 3.527344 15.894531 " fill-opacity="1" fill-rule="nonzero"/><path fill="#002279" d="M 22.289062 15.871094 C 22.289062 18.984375 19.796875 21.507812 16.71875 21.507812 C 13.644531 21.507812 11.148438 18.984375 11.148438 15.871094 C 11.148438 12.753906 13.644531 10.230469 16.71875 10.230469 C 19.796875 10.230469 22.289062 12.753906 22.289062 15.871094 " fill-opacity="1" fill-rule="nonzero"/><path fill="#ffffff" d="M 16.203125 13.652344 C 20.011719 14.460938 22.226562 16.71875 22.226562 16.71875 C 22.167969 17.15625 22.019531 17.609375 22.019531 17.609375 C 19.574219 15.265625 16.511719 14.632812 16.511719 14.632812 C 13.789062 13.96875 11.328125 14.449219 11.328125 14.449219 C 11.40625 14.128906 11.625 13.582031 11.625 13.582031 C 11.625 13.582031 13.484375 13.234375 16.203125 13.652344 " fill-opacity="1" fill-rule="nonzero"/><path fill="#ffffff" d="M 12.167969 14.625 L 12.21875 14.789062 L 12.394531 14.789062 L 12.253906 14.894531 L 12.308594 15.0625 L 12.167969 14.957031 L 12.027344 15.0625 L 12.078125 14.894531 L 11.9375 14.789062 L 12.113281 14.789062 L 12.167969 14.625 " fill-opacity="1" fill-rule="nonzero"/><path fill="#ffffff" d="M 14.585938 15.902344 L 14.632812 16.046875 L 14.785156 16.046875 L 14.660156 16.136719 L 14.707031 16.285156 L 14.585938 16.195312 L 14.464844 16.285156 L 14.511719 16.136719 L 14.386719 16.046875 L 14.539062 16.046875 L 14.585938 15.902344 " fill-opacity="1" fill-rule="nonzero"/><path fill="#ffffff" d="M 13.210938 16.75 L 13.238281 16.839844 L 13.332031 16.839844 L 13.257812 16.894531 L 13.285156 16.984375 L 13.210938 16.929688 L 13.136719 16.984375 L 13.164062 16.894531 L 13.089844 16.839844 L 13.183594 16.839844 L 13.210938 16.75 " fill-opacity="1" fill-rule="nonzero"/><path fill="#ffffff" d="M 12.660156 16.980469 L 12.71875 17.167969 L 12.910156 17.167969 L 12.757812 17.28125 L 12.816406 17.46875 L 12.660156 17.351562 L 12.503906 17.46875 L 12.5625 17.28125 L 12.40625 17.167969 L 12.597656 17.167969 L 12.660156 16.980469 " fill-opacity="1" fill-rule="nonzero"/><path fill="#ffffff" d="M 11.96875 17.550781 L 12.011719 17.6875 L 12.15625 17.6875 L 12.039062 17.773438 L 12.082031 17.910156 L 11.96875 17.824219 L 11.851562 17.910156 L 11.898438 17.773438 L 11.78125 17.6875 L 11.925781 17.6875 L 11.96875 17.550781 " fill-opacity="1" fill-rule="nonzero"/><path fill="#ffffff" d="M 13.820312 17.605469 L 13.863281 17.742188 L 14.003906 17.742188 L 13.890625 17.828125 L 13.933594 17.964844 L 13.820312 17.878906 L 13.703125 17.964844 L 13.746094 17.828125 L 13.632812 17.742188 L 13.773438 17.742188 L 13.820312 17.605469 " fill-opacity="1" fill-rule="nonzero"/><path fill="#ffffff" d="M 13.648438 18.171875 L 13.695312 18.308594 L 13.835938 18.308594 L 13.722656 18.394531 L 13.765625 18.53125 L 13.648438 18.445312 L 13.535156 18.53125 L 13.578125 18.394531 L 13.464844 18.308594 L 13.605469 18.308594 L 13.648438 18.171875 " fill-opacity="1" fill-rule="nonzero"/><path fill="#ffffff" d="M 14.472656 18.65625 L 14.523438 18.808594 L 14.683594 18.808594 L 14.554688 18.90625 L 14.601562 19.058594 L 14.472656 18.960938 L 14.34375 19.058594 L 14.394531 18.90625 L 14.265625 18.808594 L 14.425781 18.808594 L 14.472656 18.65625 " fill-opacity="1" fill-rule="nonzero"/><path fill="#ffffff" d="M 16.703125 18.203125 L 16.75 18.355469 L 16.910156 18.355469 L 16.78125 18.449219 L 16.832031 18.605469 L 16.703125 18.507812 L 16.574219 18.605469 L 16.621094 18.449219 L 16.492188 18.355469 L 16.652344 18.355469 L 16.703125 18.203125 " fill-opacity="1" fill-rule="nonzero"/><path fill="#ffffff" d="M 17.355469 17.09375 L 17.402344 17.234375 L 17.550781 17.234375 L 17.429688 17.324219 L 17.476562 17.464844 L 17.355469 17.375 L 17.238281 17.464844 L 17.28125 17.324219 L 17.164062 17.234375 L 17.3125 17.234375 L 17.355469 17.09375 " fill-opacity="1" fill-rule="nonzero"/><path fill="#ffffff" d="M 16.703125 16.578125 L 16.746094 16.722656 L 16.894531 16.722656 L 16.777344 16.808594 L 16.820312 16.949219 L 16.703125 16.863281 L 16.582031 16.949219 L 16.628906 16.808594 L 16.507812 16.722656 L 16.65625 16.722656 L 16.703125 16.578125 " fill-opacity="1" fill-rule="nonzero"/><path fill="#ffffff" d="M 16.140625 17.097656 L 16.179688 17.222656 L 16.308594 17.222656 L 16.203125 17.300781 L 16.246094 17.425781 L 16.140625 17.347656 L 16.035156 17.425781 L 16.074219 17.300781 L 15.96875 17.222656 L 16.097656 17.222656 L 16.140625 17.097656 " fill-opacity="1" fill-rule="nonzero"/><path fill="#ffffff" d="M 16.417969 17.546875 L 16.449219 17.640625 L 16.546875 17.640625 L 16.46875 17.699219 L 16.496094 17.792969 L 16.417969 17.734375 L 16.339844 17.792969 L 16.371094 17.699219 L 16.292969 17.640625 L 16.390625 17.640625 L 16.417969 17.546875 " fill-opacity="1" fill-rule="nonzero"/><path fill="#ffffff" d="M 18.222656 15.472656 L 18.253906 15.566406 L 18.347656 15.566406 L 18.269531 15.625 L 18.300781 15.71875 L 18.222656 15.660156 L 18.144531 15.71875 L 18.171875 15.625 L 18.09375 15.566406 L 18.191406 15.566406 L 18.222656 15.472656 " fill-opacity="1" fill-rule="nonzero"/><path fill="#ffffff" d="M 18.433594 13.871094 L 18.492188 14.046875 L 18.671875 14.046875 L 18.523438 14.152344 L 18.582031 14.324219 L 18.433594 14.21875 L 18.289062 14.324219 L 18.34375 14.152344 L 18.199219 14.046875 L 18.378906 14.046875 L 18.433594 13.871094 " fill-opacity="1" fill-rule="nonzero"/><path fill="#ffffff" d="M 20.605469 17.617188 L 20.660156 17.789062 L 20.839844 17.789062 L 20.695312 17.894531 L 20.75 18.070312 L 20.605469 17.960938 L 20.460938 18.070312 L 20.515625 17.894531 L 20.371094 17.789062 L 20.550781 17.789062 L 20.605469 17.617188 " fill-opacity="1" fill-rule="nonzero"/><path fill="#ffffff" d="M 20.488281 18.589844 L 20.535156 18.734375 L 20.683594 18.734375 L 20.5625 18.824219 L 20.609375 18.96875 L 20.488281 18.882812 L 20.367188 18.96875 L 20.410156 18.824219 L 20.289062 18.734375 L 20.441406 18.734375 L 20.488281 18.589844 " fill-opacity="1" fill-rule="nonzero"/><path fill="#ffffff" d="M 20.832031 18.160156 L 20.878906 18.304688 L 21.03125 18.304688 L 20.90625 18.394531 L 20.953125 18.539062 L 20.832031 18.449219 L 20.710938 18.539062 L 20.757812 18.394531 L 20.636719 18.304688 L 20.785156 18.304688 L 20.832031 18.160156 " fill-opacity="1" fill-rule="nonzero"/><path fill="#ffffff" d="M 21.378906 17.734375 L 21.414062 17.847656 L 21.527344 17.847656 L 21.433594 17.914062 L 21.46875 18.023438 L 21.378906 17.957031 L 21.285156 18.023438 L 21.320312 17.914062 L 21.226562 17.847656 L 21.339844 17.847656 L 21.378906 17.734375 " fill-opacity="1" fill-rule="nonzero"/><path fill="#ffffff" d="M 20.046875 18.933594 L 20.082031 19.042969 L 20.195312 19.042969 L 20.101562 19.113281 L 20.136719 19.222656 L 20.046875 19.15625 L 19.953125 19.222656 L 19.988281 19.113281 L 19.894531 19.042969 L 20.011719 19.042969 L 20.046875 18.933594 " fill-opacity="1" fill-rule="nonzero"/><path fill="#ffffff" d="M 19.496094 19.351562 L 19.535156 19.480469 L 19.667969 19.480469 L 19.558594 19.558594 L 19.601562 19.683594 L 19.496094 19.605469 L 19.386719 19.683594 L 19.429688 19.558594 L 19.320312 19.480469 L 19.453125 19.480469 L 19.496094 19.351562 " fill-opacity="1" fill-rule="nonzero"/><path fill="#ffffff" d="M 19.457031 18.828125 L 19.492188 18.933594 L 19.601562 18.933594 L 19.511719 19 L 19.546875 19.105469 L 19.457031 19.039062 L 19.371094 19.105469 L 19.402344 19 L 19.316406 18.933594 L 19.425781 18.933594 L 19.457031 18.828125 " fill-opacity="1" fill-rule="nonzero"/><path fill="#ffffff" d="M 18.855469 19.03125 L 18.886719 19.136719 L 18.996094 19.136719 L 18.910156 19.199219 L 18.941406 19.304688 L 18.855469 19.242188 L 18.765625 19.304688 L 18.800781 19.199219 L 18.710938 19.136719 L 18.820312 19.136719 L 18.855469 19.03125 " fill-opacity="1" fill-rule="nonzero"/><path fill="#ffffff" d="M 17.933594 18.882812 L 17.96875 18.988281 L 18.078125 18.988281 L 17.988281 19.050781 L 18.023438 19.15625 L 17.933594 19.089844 L 17.847656 19.15625 L 17.878906 19.050781 L 17.792969 18.988281 L 17.902344 18.988281 L 17.933594 18.882812 " fill-opacity="1" fill-rule="nonzero"/><path fill="#ffffff" d="M 19.492188 19.96875 L 19.523438 20.074219 L 19.632812 20.074219 L 19.546875 20.140625 L 19.578125 20.246094 L 19.492188 20.179688 L 19.402344 20.246094 L 19.4375 20.140625 L 19.347656 20.074219 L 19.457031 20.074219 L 19.492188 19.96875 " fill-opacity="1" fill-rule="nonzero"/><path fill="#ffffff" d="M 18.382812 19.5 L 18.421875 19.628906 L 18.554688 19.628906 L 18.449219 19.707031 L 18.488281 19.835938 L 18.382812 19.757812 L 18.273438 19.835938 L 18.316406 19.707031 L 18.207031 19.628906 L 18.339844 19.628906 L 18.382812 19.5 " fill-opacity="1" fill-rule="nonzero"/><path fill="#ffffff" d="M 16.71875 20.207031 L 16.738281 20.265625 L 16.800781 20.265625 L 16.75 20.304688 L 16.769531 20.363281 L 16.71875 20.328125 L 16.667969 20.363281 L 16.6875 20.304688 L 16.636719 20.265625 L 16.699219 20.265625 L 16.71875 20.207031 " fill-opacity="1" fill-rule="nonzero"/><path fill="#009b2d" d="M 11.707031 13.976562 C 11.730469 14.078125 11.8125 14.15625 11.917969 14.140625 C 12.027344 14.125 12.070312 14.027344 12.046875 13.921875 C 12.027344 13.828125 11.953125 13.738281 11.835938 13.757812 C 11.71875 13.773438 11.683594 13.875 11.707031 13.976562 Z M 12.121094 13.910156 C 12.152344 14.070312 12.058594 14.171875 11.925781 14.191406 C 11.789062 14.210938 11.667969 14.132812 11.632812 13.992188 C 11.597656 13.84375 11.683594 13.730469 11.828125 13.707031 C 11.976562 13.6875 12.09375 13.773438 12.121094 13.910156 " fill-opacity="1" fill-rule="nonzero"/><path fill="#009b2d" d="M 12.515625 13.855469 C 12.539062 13.855469 12.5625 13.851562 12.585938 13.851562 C 12.660156 13.84375 12.703125 13.804688 12.695312 13.75 C 12.6875 13.691406 12.632812 13.667969 12.558594 13.675781 C 12.523438 13.675781 12.5 13.683594 12.488281 13.6875 C 12.5 13.742188 12.507812 13.800781 12.515625 13.855469 Z M 12.410156 13.648438 C 12.445312 13.640625 12.496094 13.632812 12.546875 13.628906 C 12.621094 13.621094 12.671875 13.628906 12.710938 13.652344 C 12.742188 13.671875 12.761719 13.703125 12.765625 13.738281 C 12.773438 13.800781 12.734375 13.847656 12.679688 13.867188 C 12.679688 13.867188 12.679688 13.867188 12.679688 13.871094 C 12.722656 13.878906 12.753906 13.910156 12.769531 13.957031 C 12.796875 14.023438 12.816406 14.066406 12.828125 14.085938 C 12.804688 14.085938 12.78125 14.089844 12.757812 14.089844 C 12.75 14.078125 12.730469 14.039062 12.707031 13.980469 C 12.683594 13.917969 12.652344 13.894531 12.589844 13.898438 C 12.566406 13.898438 12.546875 13.902344 12.523438 13.902344 C 12.535156 13.972656 12.542969 14.039062 12.554688 14.105469 C 12.53125 14.109375 12.511719 14.109375 12.488281 14.113281 C 12.460938 13.957031 12.4375 13.804688 12.410156 13.648438 " fill-opacity="1" fill-rule="nonzero"/><path fill="#009b2d" d="M 13.203125 14.015625 C 13.222656 14.019531 13.246094 14.019531 13.273438 14.019531 C 13.417969 14.015625 13.492188 13.941406 13.484375 13.8125 C 13.476562 13.703125 13.398438 13.632812 13.25 13.636719 C 13.214844 13.636719 13.1875 13.640625 13.167969 13.644531 C 13.179688 13.769531 13.191406 13.894531 13.203125 14.015625 Z M 13.09375 13.601562 C 13.136719 13.59375 13.1875 13.589844 13.242188 13.585938 C 13.34375 13.585938 13.417969 13.605469 13.46875 13.640625 C 13.519531 13.679688 13.550781 13.734375 13.554688 13.808594 C 13.558594 13.886719 13.539062 13.949219 13.492188 13.996094 C 13.445312 14.039062 13.363281 14.0625 13.261719 14.066406 C 13.214844 14.070312 13.175781 14.066406 13.140625 14.066406 C 13.125 13.910156 13.109375 13.757812 13.09375 13.601562 " fill-opacity="1" fill-rule="nonzero"/><path fill="#009b2d" d="M 14.164062 13.847656 C 14.09375 13.84375 14.023438 13.84375 13.953125 13.839844 C 13.957031 13.898438 13.957031 13.953125 13.957031 14.011719 C 14.035156 14.011719 14.109375 14.015625 14.1875 14.019531 C 14.1875 14.035156 14.1875 14.054688 14.1875 14.070312 C 14.089844 14.066406 13.988281 14.0625 13.890625 14.058594 C 13.886719 13.902344 13.882812 13.746094 13.878906 13.589844 C 13.976562 13.589844 14.074219 13.59375 14.175781 13.597656 C 14.175781 13.617188 14.175781 13.632812 14.175781 13.648438 C 14.101562 13.644531 14.023438 13.644531 13.949219 13.640625 C 13.953125 13.691406 13.953125 13.742188 13.953125 13.789062 C 14.023438 13.792969 14.09375 13.792969 14.164062 13.796875 C 14.164062 13.816406 14.164062 13.832031 14.164062 13.847656 " fill-opacity="1" fill-rule="nonzero"/><path fill="#009b2d" d="M 14.960938 13.925781 C 14.960938 13.859375 14.964844 13.777344 14.96875 13.722656 C 14.96875 13.722656 14.964844 13.722656 14.964844 13.722656 C 14.941406 13.773438 14.917969 13.828125 14.886719 13.890625 C 14.847656 13.964844 14.8125 14.035156 14.777344 14.109375 C 14.761719 14.109375 14.746094 14.105469 14.726562 14.105469 C 14.703125 14.027344 14.679688 13.949219 14.652344 13.875 C 14.628906 13.804688 14.613281 13.742188 14.597656 13.6875 C 14.59375 13.746094 14.585938 13.824219 14.578125 13.894531 C 14.570312 13.960938 14.5625 14.027344 14.558594 14.09375 C 14.535156 14.089844 14.515625 14.089844 14.492188 14.089844 C 14.507812 13.933594 14.527344 13.777344 14.542969 13.621094 C 14.574219 13.625 14.605469 13.625 14.632812 13.628906 C 14.664062 13.707031 14.691406 13.785156 14.714844 13.863281 C 14.734375 13.921875 14.75 13.976562 14.761719 14.027344 C 14.761719 14.027344 14.761719 14.027344 14.765625 14.027344 C 14.78125 13.980469 14.800781 13.929688 14.828125 13.875 C 14.863281 13.800781 14.902344 13.730469 14.941406 13.65625 C 14.96875 13.660156 15 13.664062 15.027344 13.667969 C 15.027344 13.824219 15.027344 13.980469 15.023438 14.140625 C 15.003906 14.136719 14.980469 14.132812 14.960938 14.132812 C 14.960938 14.0625 14.960938 13.992188 14.960938 13.925781 " fill-opacity="1" fill-rule="nonzero"/><path fill="#009b2d" d="M 16.054688 14.082031 C 15.988281 14.066406 15.921875 14.054688 15.851562 14.042969 C 15.84375 14.097656 15.835938 14.152344 15.824219 14.207031 C 15.898438 14.222656 15.976562 14.238281 16.050781 14.25 C 16.046875 14.269531 16.042969 14.285156 16.039062 14.300781 C 15.945312 14.28125 15.847656 14.261719 15.75 14.246094 C 15.773438 14.09375 15.796875 13.9375 15.820312 13.785156 C 15.917969 13.800781 16.015625 13.820312 16.113281 13.839844 C 16.109375 13.855469 16.105469 13.871094 16.101562 13.890625 C 16.03125 13.875 15.957031 13.859375 15.882812 13.847656 C 15.875 13.894531 15.867188 13.945312 15.859375 13.992188 C 15.929688 14.003906 15.996094 14.019531 16.066406 14.03125 C 16.0625 14.046875 16.058594 14.066406 16.054688 14.082031 " fill-opacity="1" fill-rule="nonzero"/><path fill="#009b2d" d="M 16.863281 14.253906 C 16.878906 14.261719 16.894531 14.269531 16.917969 14.273438 C 16.996094 14.296875 17.054688 14.277344 17.074219 14.214844 C 17.089844 14.15625 17.050781 14.113281 16.976562 14.09375 C 16.945312 14.085938 16.921875 14.078125 16.910156 14.078125 C 16.894531 14.136719 16.878906 14.195312 16.863281 14.253906 Z M 16.851562 14.019531 C 16.886719 14.023438 16.929688 14.03125 16.984375 14.046875 C 17.054688 14.0625 17.097656 14.09375 17.121094 14.125 C 17.144531 14.15625 17.152344 14.191406 17.140625 14.230469 C 17.128906 14.273438 17.105469 14.300781 17.074219 14.316406 C 17.03125 14.339844 16.96875 14.339844 16.902344 14.320312 C 16.882812 14.316406 16.867188 14.308594 16.851562 14.304688 C 16.835938 14.363281 16.820312 14.421875 16.804688 14.484375 C 16.78125 14.476562 16.761719 14.472656 16.738281 14.464844 C 16.777344 14.316406 16.816406 14.167969 16.851562 14.019531 " fill-opacity="1" fill-rule="nonzero"/><path fill="#009b2d" d="M 17.5 14.433594 C 17.523438 14.441406 17.546875 14.449219 17.566406 14.457031 C 17.636719 14.480469 17.695312 14.464844 17.710938 14.414062 C 17.730469 14.355469 17.691406 14.3125 17.621094 14.289062 C 17.589844 14.277344 17.566406 14.273438 17.554688 14.273438 C 17.535156 14.328125 17.519531 14.378906 17.5 14.433594 Z M 17.5 14.210938 C 17.535156 14.214844 17.585938 14.226562 17.632812 14.242188 C 17.703125 14.269531 17.746094 14.296875 17.769531 14.332031 C 17.789062 14.359375 17.792969 14.394531 17.78125 14.429688 C 17.757812 14.488281 17.703125 14.511719 17.644531 14.507812 C 17.644531 14.507812 17.644531 14.507812 17.644531 14.511719 C 17.679688 14.535156 17.691406 14.574219 17.6875 14.625 C 17.679688 14.691406 17.675781 14.738281 17.679688 14.757812 C 17.660156 14.75 17.636719 14.742188 17.617188 14.734375 C 17.613281 14.722656 17.613281 14.679688 17.617188 14.617188 C 17.625 14.554688 17.605469 14.519531 17.546875 14.5 C 17.527344 14.492188 17.507812 14.484375 17.484375 14.476562 C 17.464844 14.542969 17.445312 14.605469 17.421875 14.671875 C 17.402344 14.664062 17.378906 14.65625 17.359375 14.648438 C 17.40625 14.503906 17.453125 14.355469 17.5 14.210938 " fill-opacity="1" fill-rule="nonzero"/><path fill="#009b2d" d="M 18.097656 14.667969 C 18.0625 14.761719 18.085938 14.867188 18.183594 14.90625 C 18.285156 14.945312 18.375 14.890625 18.417969 14.792969 C 18.453125 14.707031 18.441406 14.59375 18.332031 14.550781 C 18.222656 14.507812 18.136719 14.574219 18.097656 14.667969 Z M 18.484375 14.816406 C 18.417969 14.964844 18.285156 15 18.160156 14.949219 C 18.035156 14.898438 17.976562 14.773438 18.027344 14.644531 C 18.082031 14.503906 18.21875 14.453125 18.355469 14.507812 C 18.492188 14.5625 18.542969 14.691406 18.484375 14.816406 " fill-opacity="1" fill-rule="nonzero"/><path fill="#009b2d" d="M 19.050781 15.320312 C 19.019531 15.316406 18.960938 15.304688 18.894531 15.273438 C 18.824219 15.238281 18.773438 15.195312 18.746094 15.132812 C 18.722656 15.078125 18.722656 15.011719 18.753906 14.945312 C 18.816406 14.820312 18.960938 14.773438 19.125 14.851562 C 19.183594 14.882812 19.222656 14.914062 19.238281 14.933594 C 19.226562 14.945312 19.214844 14.957031 19.203125 14.96875 C 19.179688 14.945312 19.152344 14.921875 19.101562 14.898438 C 18.984375 14.839844 18.871094 14.867188 18.820312 14.972656 C 18.769531 15.078125 18.8125 15.175781 18.921875 15.230469 C 18.960938 15.25 18.992188 15.257812 19.011719 15.257812 C 19.03125 15.21875 19.054688 15.175781 19.074219 15.132812 C 19.042969 15.117188 19.007812 15.101562 18.976562 15.085938 C 18.984375 15.074219 18.992188 15.058594 19 15.042969 C 19.050781 15.070312 19.105469 15.09375 19.15625 15.121094 C 19.121094 15.1875 19.085938 15.253906 19.050781 15.320312 " fill-opacity="1" fill-rule="nonzero"/><path fill="#009b2d" d="M 19.527344 15.308594 C 19.546875 15.320312 19.566406 15.332031 19.589844 15.34375 C 19.652344 15.378906 19.714844 15.371094 19.742188 15.328125 C 19.773438 15.277344 19.742188 15.226562 19.675781 15.191406 C 19.648438 15.175781 19.625 15.164062 19.613281 15.164062 C 19.585938 15.210938 19.554688 15.261719 19.527344 15.308594 Z M 19.570312 15.09375 C 19.605469 15.105469 19.652344 15.125 19.695312 15.148438 C 19.761719 15.183594 19.800781 15.21875 19.816406 15.257812 C 19.828125 15.289062 19.824219 15.324219 19.804688 15.355469 C 19.773438 15.410156 19.714844 15.421875 19.65625 15.40625 C 19.65625 15.410156 19.652344 15.410156 19.652344 15.410156 C 19.683594 15.441406 19.6875 15.480469 19.671875 15.53125 C 19.652344 15.59375 19.640625 15.636719 19.640625 15.660156 C 19.621094 15.648438 19.601562 15.636719 19.582031 15.625 C 19.578125 15.609375 19.589844 15.570312 19.609375 15.511719 C 19.628906 15.449219 19.613281 15.414062 19.5625 15.382812 C 19.542969 15.371094 19.523438 15.359375 19.503906 15.351562 C 19.46875 15.410156 19.4375 15.46875 19.402344 15.527344 C 19.382812 15.515625 19.363281 15.503906 19.34375 15.492188 C 19.417969 15.359375 19.496094 15.226562 19.570312 15.09375 " fill-opacity="1" fill-rule="nonzero"/><path fill="#009b2d" d="M 20.265625 15.78125 C 20.207031 15.742188 20.148438 15.707031 20.089844 15.667969 C 20.058594 15.714844 20.027344 15.761719 19.996094 15.808594 C 20.0625 15.851562 20.125 15.890625 20.191406 15.933594 C 20.179688 15.945312 20.171875 15.960938 20.160156 15.972656 C 20.078125 15.921875 19.992188 15.867188 19.910156 15.816406 C 19.996094 15.6875 20.082031 15.554688 20.167969 15.425781 C 20.253906 15.476562 20.335938 15.527344 20.421875 15.582031 C 20.410156 15.597656 20.402344 15.609375 20.390625 15.625 C 20.328125 15.582031 20.265625 15.542969 20.199219 15.503906 C 20.171875 15.546875 20.144531 15.585938 20.117188 15.628906 C 20.175781 15.664062 20.238281 15.703125 20.296875 15.738281 C 20.285156 15.753906 20.277344 15.765625 20.265625 15.78125 " fill-opacity="1" fill-rule="nonzero"/><path fill="#009b2d" d="M 20.464844 16.085938 C 20.480469 16.117188 20.511719 16.152344 20.550781 16.179688 C 20.605469 16.222656 20.660156 16.21875 20.6875 16.179688 C 20.714844 16.148438 20.707031 16.109375 20.664062 16.050781 C 20.609375 15.976562 20.585938 15.914062 20.625 15.863281 C 20.671875 15.804688 20.761719 15.800781 20.851562 15.859375 C 20.894531 15.894531 20.921875 15.925781 20.933594 15.949219 C 20.917969 15.957031 20.902344 15.96875 20.886719 15.976562 C 20.878906 15.960938 20.859375 15.925781 20.816406 15.898438 C 20.753906 15.855469 20.707031 15.871094 20.6875 15.894531 C 20.664062 15.929688 20.675781 15.96875 20.722656 16.03125 C 20.777344 16.105469 20.792969 16.164062 20.75 16.21875 C 20.703125 16.273438 20.617188 16.289062 20.515625 16.21875 C 20.472656 16.1875 20.433594 16.148438 20.421875 16.117188 C 20.4375 16.109375 20.453125 16.097656 20.464844 16.085938 " fill-opacity="1" fill-rule="nonzero"/><path fill="#009b2d" d="M 20.972656 16.453125 C 20.988281 16.484375 21.015625 16.519531 21.050781 16.550781 C 21.105469 16.59375 21.160156 16.59375 21.191406 16.558594 C 21.222656 16.523438 21.214844 16.488281 21.175781 16.425781 C 21.125 16.351562 21.105469 16.285156 21.148438 16.234375 C 21.195312 16.179688 21.289062 16.179688 21.371094 16.246094 C 21.417969 16.28125 21.441406 16.316406 21.453125 16.339844 C 21.4375 16.347656 21.421875 16.355469 21.40625 16.363281 C 21.394531 16.347656 21.375 16.3125 21.335938 16.28125 C 21.277344 16.238281 21.230469 16.25 21.210938 16.273438 C 21.179688 16.308594 21.191406 16.34375 21.234375 16.410156 C 21.289062 16.488281 21.296875 16.546875 21.25 16.597656 C 21.203125 16.652344 21.113281 16.660156 21.015625 16.585938 C 20.976562 16.554688 20.9375 16.511719 20.925781 16.480469 C 20.941406 16.46875 20.957031 16.460938 20.972656 16.453125 " fill-opacity="1" fill-rule="nonzero"/><path fill="#009b2d" d="M 21.613281 16.761719 C 21.542969 16.835938 21.527344 16.9375 21.609375 17.011719 C 21.691406 17.082031 21.800781 17.0625 21.878906 16.988281 C 21.945312 16.921875 21.972656 16.8125 21.882812 16.734375 C 21.796875 16.65625 21.683594 16.6875 21.613281 16.761719 Z M 21.933594 17.035156 C 21.816406 17.148438 21.671875 17.132812 21.570312 17.042969 C 21.464844 16.953125 21.457031 16.820312 21.554688 16.714844 C 21.660156 16.605469 21.808594 16.601562 21.921875 16.703125 C 22.035156 16.800781 22.035156 16.9375 21.933594 17.035156 " fill-opacity="1" fill-rule="nonzero"/></svg>